<svg xmlns="http://www.w3.org/2000/svg" viewBox="0 0 240 240" class="hw-character hw-companion" data-character-id="monster_012" role="img" aria-label="butterfly"><title>butterfly</title><ellipse cx="120" cy="217" rx="65" ry="8" fill="#45614e" opacity=".12"/><g class="hw-character-body"><path d="M111 106Q72 38 36 63 11 113  70 134Q26 154 47 193q46 17 69-46M129 106q39-68 75-43 25 50-70 71  50 20 29 59-46 17-69-46" fill="#c2add0" stroke="#40524f" stroke-width="3" stroke-linecap="round" stroke-linejoin="round"/><path d="M98 107Q67 65 48  80 q-7 32 45 41M143 107q31-42 50-27 7 32-45 41" fill="#e4d4d6" stroke="#40524f" stroke-width="1.5" stroke-linecap="round" stroke-linejoin="round"/><path d="M105 134a15 49 0 1 0 30 0a15 49 0 1 0 -30 0" fill="#a2b69e" stroke="#40524f" stroke-width="3" stroke-linecap="round" stroke-linejoin="round"/><path d="M97 92a23 22 0 1 0 46 0a23 22 0 1 0 -46 0" fill="#a2b69e" stroke="#40524f" stroke-width="3" stroke-linecap="round" stroke-linejoin="round"/><g class="hw-character-eye"><ellipse cx="111" cy="90" rx="6" ry="8" fill="#40524f"/><circle cx="109.5" cy="87" r="2" fill="#fff9ed"/></g><g class="hw-character-eye"><ellipse cx="129" cy="90" rx="6" ry="8" fill="#40524f"/><circle cx="127.5" cy="87" r="2" fill="#fff9ed"/></g><path d="M113 108q7 7 14 0" fill="none" stroke="#40524f" stroke-width="2.5" stroke-linecap="round" stroke-linejoin="round"/><g fill="#e29794" opacity=".45"><ellipse cx="101" cy="102" rx="8" ry="4"/><ellipse cx="139" cy="102" rx="8" ry="4"/></g><path d="M110 74l-9-23M130 74l9-23" fill="none" stroke="#40524f" stroke-width="4" stroke-linecap="round" stroke-linejoin="round"/></g></svg>
