<svg xmlns="http://www.w3.org/2000/svg" viewBox="0 0 240 240" class="hw-character hw-companion" data-character-id="monster_005" role="img" aria-label="panda"><title>panda</title><ellipse cx="120" cy="217" rx="65" ry="8" fill="#45614e" opacity=".12"/><g class="hw-character-body"><path d="M55 73a22 24 0 1 0 44 0a22 24 0 1 0 -44 0" fill="#f1e4d0" stroke="#40524f" stroke-width="3" stroke-linecap="round" stroke-linejoin="round"/><path d="M144 73a22 24 0 1 0 44 0a22 24 0 1 0 -44 0" fill="#f1e4d0" stroke="#40524f" stroke-width="3" stroke-linecap="round" stroke-linejoin="round"/><path d="M60 73a17 19 0 1 0 34 0a17 19 0 1 0 -34 0" fill="#40524f" stroke="#40524f" stroke-width="0" stroke-linecap="round" stroke-linejoin="round"/><path d="M149 73a17 19 0 1 0 34 0a17 19 0 1 0 -34 0" fill="#40524f" stroke="#40524f" stroke-width="0" stroke-linecap="round" stroke-linejoin="round"/><path d="M74 167a47 44 0 1 0 94 0a47 44 0 1 0 -94 0" fill="#f1e4d0" stroke="#40524f" stroke-width="3" stroke-linecap="round" stroke-linejoin="round"/><path d="M63 202a23 12 0 1 0 46 0a23 12 0 1 0 -46 0" fill="#d8d0be" stroke="#40524f" stroke-width="3" stroke-linecap="round" stroke-linejoin="round"/><path d="M133 202a23 12 0 1 0 46 0a23 12 0 1 0 -46 0" fill="#d8d0be" stroke="#40524f" stroke-width="3" stroke-linecap="round" stroke-linejoin="round"/><path d="M64 105q0-43 58-44 55 4 56 47 1 40-57 48-60-5-57-51z" fill="#f1e4d0" stroke="#40524f" stroke-width="3" stroke-linecap="round" stroke-linejoin="round"/><path d="M82 112a16 20 0 1 0 32 0a16 20 0 1 0 -32 0" fill="#40524f" stroke="#40524f" stroke-width="0" stroke-linecap="round" stroke-linejoin="round"/><path d="M131 112a16 20 0 1 0 32 0a16 20 0 1 0 -32 0" fill="#40524f" stroke="#40524f" stroke-width="0" stroke-linecap="round" stroke-linejoin="round"/><path d="M92 110a6 8 0 1 0 12 0a6 8 0 1 0 -12 0" fill="#fff4db" stroke="#40524f" stroke-width="0" stroke-linecap="round" stroke-linejoin="round"/><path d="M141 110a6 8 0 1 0 12 0a6 8 0 1 0 -12 0" fill="#fff4db" stroke="#40524f" stroke-width="0" stroke-linecap="round" stroke-linejoin="round"/><path d="M116 137q7 5 14-1" fill="none" stroke="#40524f" stroke-width="3" stroke-linecap="round" stroke-linejoin="round"/><path d="M76 157q-24 0-24 18 10 15 26 7l13-13M167 156q23 4 20 20-12 14-27 4l-8-13" fill="#f1e4d0" stroke="#40524f" stroke-width="3" stroke-linecap="round" stroke-linejoin="round"/><path d="M99 179a22 16 0 1 0 44 0a22 16 0 1 0 -44 0" fill="#faeed7" stroke="#40524f" stroke-width="0" stroke-linecap="round" stroke-linejoin="round"/></g></svg>
