<svg xmlns="http://www.w3.org/2000/svg" viewBox="0 0 240 240" class="hw-character hw-companion" data-character-id="mellow_cat" role="img" aria-label="마시멜로냥"><title>마시멜로냥</title><ellipse cx="120" cy="217" rx="65" ry="8" fill="#45614e" opacity=".12"/><g class="hw-character-body"><path d="M163 174q 40 8  30-27-9-10-14-1 0 7 9 8" fill="#dfbfd0" stroke="#40524f" stroke-width="3" stroke-linecap="round" stroke-linejoin="round"/><path d="M66 98L63 45l41 30M137 75l39-30 0 58" fill="#eddbd1" stroke="#40524f" stroke-width="3" stroke-linecap="round" stroke-linejoin="round"/><path d="M74 167a47 44 0 1 0 94 0a47 44 0 1 0 -94 0" fill="#eddbd1" stroke="#40524f" stroke-width="3" stroke-linecap="round" stroke-linejoin="round"/><path d="M63 202a23 12 0 1 0 46 0a23 12 0 1 0 -46 0" fill="#d5c8bf" stroke="#40524f" stroke-width="3" stroke-linecap="round" stroke-linejoin="round"/><path d="M133 202a23 12 0 1 0 46 0a23 12 0 1 0 -46 0" fill="#d5c8bf" stroke="#40524f" stroke-width="3" stroke-linecap="round" stroke-linejoin="round"/><path d="M64 105q0-43 58-44 55 4 56 47 1 40-57 48-60-5-57-51z" fill="#eddbd1" stroke="#40524f" stroke-width="3" stroke-linecap="round" stroke-linejoin="round"/><g class="hw-character-eye"><ellipse cx="100" cy="111" rx="6" ry="8" fill="#40524f"/><circle cx="98.5" cy="108" r="2" fill="#fff9ed"/></g><g class="hw-character-eye"><ellipse cx="142" cy="111" rx="6" ry="8" fill="#40524f"/><circle cx="140.5" cy="108" r="2" fill="#fff9ed"/></g><path d="M114 129q7 7 14 0" fill="none" stroke="#40524f" stroke-width="2.5" stroke-linecap="round" stroke-linejoin="round"/><g fill="#e29794" opacity=".45"><ellipse cx="90" cy="123" rx="8" ry="4"/><ellipse cx="152" cy="123" rx="8" ry="4"/></g><path d="M76 157q-24 0-24 18 10 15 26 7l13-13M167 156q23 4 20 20-12 14-27 4l-8-13" fill="#eddbd1" stroke="#40524f" stroke-width="3" stroke-linecap="round" stroke-linejoin="round"/><path d="M99 179a22 16 0 1 0 44 0a22 16 0 1 0 -44 0" fill="#f9ebd8" stroke="#40524f" stroke-width="0" stroke-linecap="round" stroke-linejoin="round"/><path d="M111 74l9 8 9-8" fill="none" stroke="#cbb3c3" stroke-width="4" stroke-linecap="round" stroke-linejoin="round"/><path d="M101 157l19 9 20-9-2 16-18 8-19-8z" fill="#a3bfb4" stroke="#40524f" stroke-width="2" stroke-linecap="round" stroke-linejoin="round"/><path d="M120 167l2.17 4.41 4.8999999999999995 0.7000000000000001 -3.5 3.5 0.77 4.8999999999999995 -4.34 -2.24 -4.34 2.24 0.77 -4.8999999999999995 -3.5 -3.5 4.8999999999999995 -0.7000000000000001z" fill="#e2c585" stroke="#40524f" stroke-width="2" stroke-linecap="round" stroke-linejoin="round"/></g></svg>
