<svg xmlns="http://www.w3.org/2000/svg" viewBox="0 0 240 320" role="img" aria-label="쿠키 후드"><path d="M84 210h73l-2 38-29 2-6-22-6 22-30-2z" fill="#a88d6c" stroke="#443f48" stroke-width="2.6" stroke-linejoin="round" stroke-linecap="round"/><path d="M91 217v17l13 0M143 217v17h-11" fill="none" stroke="#d4c2a9" stroke-width="2" stroke-linejoin="round" stroke-linecap="round"/><path d="M90 241h18M132 241h17" fill="none" stroke="#947d65" stroke-width="3" stroke-linejoin="round" stroke-linecap="round"/><path d="M86 157l-22 13-11 37 26 6 15-31M154 157l22 13 11 37-26 6-15-31" fill="#cfaa72" stroke="#443f48" stroke-width="2.6" stroke-linejoin="round" stroke-linecap="round"/><path d="M88 151l19-7h26l20 8 7 66q-42 10-80 0z" fill="#cfaa72" stroke="#443f48" stroke-width="2.6" stroke-linejoin="round" stroke-linecap="round"/><path d="M102 147q16 18 35 0l-8 23-11 3-14-12z" fill="#fff7e5" stroke="#443f48" stroke-width="2" stroke-linejoin="round" stroke-linecap="round"/><path d="M96 145q24-15 48 0l-8 18-13-3-13 4z" fill="#e7d1ac" stroke="#443f48" stroke-width="2.6" stroke-linejoin="round" stroke-linecap="round"/><ellipse cx="120" cy="190" rx="12" ry="12" fill="#e4bd81" stroke="#443f48" stroke-width="1.6"/><path d="M116 186h1m10 7h1m-14 3h1" fill="none" stroke="#8d6b4e" stroke-width="3" stroke-linejoin="round" stroke-linecap="round"/><path d="M99 207q20 6 43 0l-3 8h-37z" fill="#c19f6e" stroke="#443f48" stroke-width="1.5" stroke-linejoin="round" stroke-linecap="round"/></svg>
