<svg xmlns="http://www.w3.org/2000/svg" viewBox="0 0 240 320" role="img" aria-label="프린세스 눈빛"><g class="hw-avatar-eye"><ellipse cx="96" cy="101" rx="9" ry="11" fill="#443f48" stroke="#443f48" stroke-width="0"/><ellipse cx="94" cy="97" rx="2.6" ry="3.2" fill="#fff7e5" stroke="#443f48" stroke-width="0"/><ellipse cx="99" cy="105" rx="1.3" ry="1.4" fill="#d6bda5" stroke="#443f48" stroke-width="0"/><path d="M95 93l1.2 2.52 2.8 0.4 -2 2 0.48 2.8 -2.48 -1.32 -2.48 1.32 0.48 -2.8 -2 -2 2.8 -0.4z" fill="#fff7e5" stroke="#443f48" stroke-width="1.8" stroke-linejoin="round" stroke-linecap="round"/></g><path d="M88 83q8-4 16 0" fill="none" stroke="#443f48" stroke-width="2" stroke-linejoin="round" stroke-linecap="round"/><g class="hw-avatar-eye"><ellipse cx="145" cy="101" rx="9" ry="11" fill="#443f48" stroke="#443f48" stroke-width="0"/><ellipse cx="143" cy="97" rx="2.6" ry="3.2" fill="#fff7e5" stroke="#443f48" stroke-width="0"/><ellipse cx="148" cy="105" rx="1.3" ry="1.4" fill="#d6bda5" stroke="#443f48" stroke-width="0"/><path d="M144 93l1.2 2.52 2.8 0.4 -2 2 0.48 2.8 -2.48 -1.32 -2.48 1.32 0.48 -2.8 -2 -2 2.8 -0.4z" fill="#fff7e5" stroke="#443f48" stroke-width="1.8" stroke-linejoin="round" stroke-linecap="round"/></g><path d="M137 83q8-4 16 0" fill="none" stroke="#443f48" stroke-width="2" stroke-linejoin="round" stroke-linecap="round"/><g opacity=".36" fill="#dc8d87"><ellipse cx="79" cy="117" rx="10" ry="5"/><ellipse cx="163" cy="117" rx="10" ry="5"/></g><path d="M120 108l-2 5 5 1" fill="none" stroke="#b98774" stroke-width="1.8" stroke-linejoin="round" stroke-linecap="round"/><path d="M110 125q11 12 23-1" fill="none" stroke="#443f48" stroke-width="2.7" stroke-linejoin="round" stroke-linecap="round"/></svg>
