<svg viewBox="0 0 240 240" xmlns="http://www.w3.org/2000/svg" role="img" aria-label="갤럭시래빗">
    <defs><radialGradient id="bg-s2_space_orbit_bunny_3" cx="50%" cy="35%" r="70%"><stop offset="0" stop-color="#eef2ff"/><stop offset="1" stop-color="#4f46e5" stop-opacity=".22"/></radialGradient></defs>
    <circle cx="120" cy="120" r="112" fill="url(#bg-s2_space_orbit_bunny_3)"/>
    <g><ellipse cx="86" cy="48" rx="23" ry="48" fill="#a5b4fc" stroke="#3730a3" stroke-width="7" transform="rotate(-9 86 48)"/><ellipse cx="154" cy="48" rx="23" ry="48" fill="#a5b4fc" stroke="#3730a3" stroke-width="7" transform="rotate(9 154 48)"/><ellipse cx="120" cy="133" rx="65" ry="73" fill="#a5b4fc" stroke="#3730a3" stroke-width="7"/><circle cx="99" cy="113" r="6" fill="#172033"/><circle cx="141" cy="113" r="6" fill="#172033"/><path d="M106 145 Q120 155 134 145" fill="none" stroke="#172033" stroke-width="5" stroke-linecap="round"/><circle cx="120" cy="130" r="7" fill="#3730a3"/><path d="M52 157L13 132l17 58 38-8M188 157l39-25-17 58-38-8" fill="#eef2ff" stroke="#3730a3" stroke-width="7"/><path d="M82 61l14-31 24 20 24-20 14 31" fill="#fde047" stroke="#a16207" stroke-width="6" stroke-linejoin="round"/><circle cx="120" cy="30" r="8" fill="#fff"/><path d="M75 199q45 27 90 0" fill="none" stroke="#fde047" stroke-width="10" stroke-linecap="round"/><circle cx="184" cy="151" r="24" fill="#818cf8" stroke="#312e81" stroke-width="5"/><ellipse cx="184" cy="151" rx="39" ry="12" fill="none" stroke="#fef08a" stroke-width="6" transform="rotate(-15 184 151)"/></g>
    
  </svg>
