<svg xmlns="http://www.w3.org/2000/svg" viewBox="0 0 240 320" role="img" aria-label="프린세스 롱"><path d="M66 49q-31 35-21 87l-5 61 40 13 79-1 38-14-1-63q9-59-27-83z" fill="#8b5cf6" stroke="#443f48" stroke-width="2.6" stroke-linejoin="round" stroke-linecap="round"/><path d="M55 113q9 25 3 64M183 105q-8 38 1 67" fill="none" stroke="#ab87eb" stroke-width="5" stroke-linejoin="round" stroke-linecap="round"/><path d="M60 77q-7-51 61-54 62 0 61 57l-5 52-58 25-58-24z" fill="#8b5cf6" stroke="#443f48" stroke-width="2.6" stroke-linejoin="round" stroke-linecap="round"/><path d="M59 105Q44 46 89 30q50-22 79 21 20 19 12 57l-18-24-5-39q-13 39-40 46l5-24-43 25-7 27z" fill="#8b5cf6" stroke="#443f48" stroke-width="2.6" stroke-linejoin="round" stroke-linecap="round"/><path d="M73 53q22-20 49-17" fill="none" stroke="#ab87eb" stroke-width="5" stroke-linejoin="round" stroke-linecap="round"/></svg>
