<svg xmlns="http://www.w3.org/2000/svg" viewBox="0 0 240 240" class="s2-monster-svg hw-character" data-art-version="13.0.0" role="img" aria-label="날개현자"><title>날개현자</title><ellipse cx="120" cy="216" rx="61" ry="8" fill="#385849" opacity=".10"/><g class="hw-character-body" transform="translate(6 7) scale(.95)" stroke-linejoin="round" stroke-linecap="round"><path d="M77 208a17 8 0 1 0 34 0a17 8 0 1 0 -34 0" fill="#e9b877" stroke="#195568" stroke-width="3.4" stroke-linejoin="round" stroke-linecap="round"/><path d="M129 208a17 8 0 1 0 34 0a17 8 0 1 0 -34 0" fill="#e9b877" stroke="#195568" stroke-width="3.4" stroke-linejoin="round" stroke-linecap="round"/><path d="M82 113Q48 78 13 96l21 23-19 17 25 7-4 28 33-14 22-28z" fill="#a5f3fc" stroke="#195568" stroke-width="3.4" stroke-linejoin="round" stroke-linecap="round"/><path d="M158 113q34-35 69-17l-21 23 19 17-25 7 4 28-33-14-22-28z" fill="#a5f3fc" stroke="#195568" stroke-width="3.4" stroke-linejoin="round" stroke-linecap="round"/><path d="M26 100l48 25M31 132l39-3M47 159l24-24M214 100l-48 25M209 132l-39-3M193 159l-24-24" fill="none" stroke="#8ad5e0" stroke-width="4" stroke-linejoin="round" stroke-linecap="round"/><path d="M80 92q-30 62-11 108 26 17 51 9 35 10 52-16 14-52-17-101z" fill="#a5f3fc" stroke="#195568" stroke-width="3.4" stroke-linejoin="round" stroke-linecap="round"/><path d="M86 135q34-16 68 0l7 54q-41 27-79 0z" fill="#ecfeff" stroke="#ecfeff" stroke-width="0" stroke-linejoin="round" stroke-linecap="round"/><path d="M103 159l5 5 5-5" fill="none" stroke="#8ad5e0" stroke-width="3" stroke-linejoin="round" stroke-linecap="round"/><path d="M127 159l5 5 5-5" fill="none" stroke="#8ad5e0" stroke-width="3" stroke-linejoin="round" stroke-linecap="round"/><path d="M115 177l5 5 5-5" fill="none" stroke="#8ad5e0" stroke-width="3" stroke-linejoin="round" stroke-linecap="round"/><path d="M63 86L49 32l41 20q30-21 61 0l37-20-10 54q7 45-57 47-64-1-58-47z" fill="#a5f3fc" stroke="#195568" stroke-width="3.4" stroke-linejoin="round" stroke-linecap="round"/><path d="M70 88q-1-33 32-22l18 16 18-16q33-11 32 22-2 31-34 31l-16-12-16 12q-32 0-34-31z" fill="#ecfeff" stroke="#ecfeff" stroke-width="0" stroke-linejoin="round" stroke-linecap="round"/><g class="hw-character-eye"><ellipse cx="97" cy="91" rx="8" ry="10" fill="#195568"/><circle cx="95" cy="88" r="2.6" fill="#fffdf5"/><circle cx="99" cy="94" r="1.15" fill="#d7fafe"/></g><g class="hw-character-eye"><ellipse cx="143" cy="91" rx="8" ry="10" fill="#195568"/><circle cx="141" cy="88" r="2.6" fill="#fffdf5"/><circle cx="145" cy="94" r="1.15" fill="#d7fafe"/></g><path d="M113 101l7-4 8 4-8 13z" fill="#e9b877" stroke="#195568" stroke-width="2" stroke-linejoin="round" stroke-linecap="round"/><path d="M105 192l11-13 4 9 5-8 13 10 1 17h-36z" fill="#efd59d" stroke="#195568" stroke-width="2" stroke-linejoin="round" stroke-linecap="round"/><path d="M112 195h18m-18 6h15" fill="none" stroke="#195568" stroke-width="1.5" stroke-linejoin="round" stroke-linecap="round"/><path d="M112 52l-4-31 12 7 9-14 5 35z" fill="#ecfeff" stroke="#195568" stroke-width="2.5" stroke-linejoin="round" stroke-linecap="round"/><path d="M120 40l8-9" fill="none" stroke="#8ad5e0" stroke-width="2" stroke-linejoin="round" stroke-linecap="round"/><path d="M76 132q44 12 88 0l-4 14q-40 12 -80 0z" fill="#769eaf" stroke="#195568" stroke-width="3" stroke-linejoin="round" stroke-linecap="round"/><path d="M132 145q18 9 21 27l-17-4-9-25z" fill="#769eaf" stroke="#195568" stroke-width="2.5" stroke-linejoin="round" stroke-linecap="round"/><path d="M84 139q36 9 72 0" fill="none" stroke="#9fbbc7" stroke-width="2" stroke-linejoin="round" stroke-linecap="round"/></g></svg>
