<svg viewBox="0 0 240 240" xmlns="http://www.w3.org/2000/svg" role="img" aria-label="바람여우">
    <defs><radialGradient id="bg-s2_cloud_mist_fox_2" cx="50%" cy="35%" r="70%"><stop offset="0" stop-color="#eff6ff"/><stop offset="1" stop-color="#38bdf8" stop-opacity=".22"/></radialGradient></defs>
    <circle cx="120" cy="120" r="112" fill="url(#bg-s2_cloud_mist_fox_2)"/>
    <g><path d="M55 93L66 31l50 43M185 93l-11-62-50 43" fill="#dbeafe" stroke="#2563eb" stroke-width="7" stroke-linejoin="round"/><path d="M58 95Q120 54 182 95l-22 83q-40 35-80 0z" fill="#dbeafe" stroke="#2563eb" stroke-width="7"/><path d="M120 113l-15 22h30z" fill="#ffffff"/><circle cx="99" cy="105" r="6" fill="#172033"/><circle cx="141" cy="105" r="6" fill="#172033"/><path d="M106 151 Q120 161 134 151" fill="none" stroke="#172033" stroke-width="5" stroke-linecap="round"/><path d="M78 170Q43 181 55 207q44 5 65-28" fill="#dbeafe" stroke="#2563eb" stroke-width="7"/><path d="M57 158l-32 26 41 4M183 158l32 26-41 4" fill="#ffffff" stroke="#2563eb" stroke-width="6"/><path d="M86 190h68l-8 31H94z" fill="#2563eb"/><circle cx="120" cy="204" r="8" fill="#dbeafe"/><path d="M155 166c0-15 13-26 27-22 5-13 26-12 31 2 17-2 24 22 7 30h-51c-8 0-14-4-14-10z" fill="#fff" stroke="#38bdf8" stroke-width="5"/></g>
    
  </svg>
